<?xml version="1.0" encoding="UTF-8"?>
<svg version="1.1" xmlns="http://www.w3.org/2000/svg" width="512" height="512">
<path d="M0 0 C0.79662916 -0.00538554 1.59325832 -0.01077108 2.41402775 -0.01631981 C5.06858237 -0.03056381 7.72263582 -0.02350458 10.37721252 -0.01637268 C12.28642679 -0.0220781 14.19563765 -0.02904303 16.10484314 -0.03717041 C21.28046983 -0.05509762 26.45592694 -0.05393426 31.63157535 -0.04822803 C35.95565607 -0.04513563 40.27970424 -0.05122918 44.60378033 -0.05726677 C54.80611735 -0.07130888 65.00837063 -0.06975322 75.21070862 -0.05836487 C85.7291371 -0.046883 96.24731064 -0.06096128 106.76570553 -0.08776134 C115.80370707 -0.10992563 124.84162863 -0.11655409 133.87965542 -0.11068493 C139.27450196 -0.10731603 144.66918507 -0.10972615 150.06400871 -0.12693596 C155.13747258 -0.14241461 160.21055902 -0.13843918 165.28400803 -0.11963081 C167.14315659 -0.11594755 169.00233319 -0.11904574 170.86145592 -0.1295166 C173.40514051 -0.14274641 175.94757919 -0.13116215 178.49121094 -0.11352539 C179.22186829 -0.1231304 179.95252563 -0.1327354 180.70532411 -0.14263147 C187.07821843 -0.05210054 192.11417697 2.16019724 197.01612854 6.2118988 C203.64777591 13.90848225 205.01456746 20.44050677 204.80909729 30.38768005 C205.8065094 30.36673279 206.80392151 30.34578552 207.83155823 30.32420349 C211.58873208 30.25092791 215.34584505 30.20556796 219.10353088 30.16795349 C220.71919938 30.14803473 222.33479769 30.12088932 223.95021057 30.08592224 C241.67026967 29.71240581 255.36497803 33.71040778 268.52003479 46.0712738 C277.83392455 55.49642164 284.05370604 67.90543183 284.06357288 81.32188702 C284.06677936 81.98652288 284.06998584 82.65115874 284.07328948 83.33593509 C284.08156668 85.55490723 284.0756733 87.77360785 284.0697937 89.99258423 C284.07281544 91.60287205 284.07670504 93.21315843 284.08138627 94.82344228 C284.09167239 99.2424996 284.08948285 103.66147584 284.08520567 108.08053982 C284.08273951 112.84893426 284.09175135 117.61730913 284.09924316 122.38569641 C284.11199611 131.72606494 284.11378304 141.06640473 284.1114429 150.4067805 C284.10965993 158.00043131 284.11140895 165.5940734 284.11566734 173.18772316 C284.11626253 174.2684763 284.11685772 175.34922944 284.11747095 176.46273268 C284.1186827 178.65832016 284.11989684 180.85390765 284.12111332 183.04949514 C284.13199156 203.64356542 284.12982527 224.23761932 284.12372848 244.83169053 C284.11856143 263.66338422 284.12980867 282.49502614 284.1488267 301.32670959 C284.16820968 320.66828629 284.17646014 340.00983851 284.17270344 359.35142499 C284.1707918 370.20805744 284.17327524 381.06464585 284.18741798 391.92127037 C284.19933875 401.16575172 284.20072899 410.41016194 284.18862782 419.65464427 C284.18274349 424.36902111 284.18162731 429.0832679 284.19363022 433.79763603 C284.20450387 438.11880533 284.20136806 442.43973624 284.18736853 446.76089446 C284.18472564 448.31876179 284.18707527 449.8766479 284.1951044 451.43449678 C284.28006123 469.15751545 280.48454792 484.22806018 267.97315979 497.3915863 C255.77585958 508.64216466 242.80207595 512.6994061 226.50068665 512.65510559 C225.27316878 512.6596367 224.04565091 512.66416782 222.78093553 512.66883624 C219.39023335 512.67927583 215.99974399 512.68081135 212.60904098 512.67844748 C208.94564417 512.67803813 205.2822786 512.68908978 201.61889648 512.69856262 C194.44772136 512.71514792 187.27657911 512.72067105 180.10538641 512.72178738 C174.27377204 512.72273903 168.4421685 512.72685519 162.61055756 512.73318863 C146.06200916 512.75079436 129.51348666 512.76002856 112.96492884 512.75852768 C112.07351907 512.75844777 111.18210931 512.75836786 110.26368713 512.75828552 C109.37118382 512.75820376 108.47868052 512.758122 107.55913165 512.75803776 C93.09884931 512.75722507 78.63867117 512.77636025 64.17841896 512.80456226 C49.31617724 512.8333186 34.45398629 512.84710104 19.59171605 512.8453747 C11.25353546 512.84471175 2.91546412 512.85016254 -5.42269135 512.8717308 C-12.52254235 512.88997885 -19.62223457 512.89426031 -26.72209892 512.88071196 C-30.34087849 512.87420047 -33.95935376 512.8739986 -37.57810402 512.89141846 C-41.51039447 512.91015206 -45.44224515 512.89754713 -49.3745575 512.88215637 C-50.50532188 512.8924435 -51.63608626 512.90273062 -52.80111623 512.91332948 C-69.08905543 512.7729873 -81.9363604 505.77666229 -93.19090271 494.38768005 C-101.28362705 485.46447964 -106.43650215 473.52284267 -106.4453783 461.45347309 C-106.45018802 460.4565193 -106.45018802 460.4565193 -106.4550949 459.43942502 C-106.4633721 457.22045288 -106.45747872 455.00175226 -106.45159912 452.78277588 C-106.45462086 451.17248806 -106.45851046 449.56220168 -106.46319169 447.95191783 C-106.47347781 443.53286051 -106.47128827 439.11388427 -106.46701109 434.69482028 C-106.46454493 429.92642584 -106.47355677 425.15805098 -106.48104858 420.3896637 C-106.49380153 411.04929517 -106.49558846 401.70895537 -106.49324832 392.3685796 C-106.49146535 384.7749288 -106.49321437 377.18128671 -106.49747276 369.58763695 C-106.49806795 368.50688381 -106.49866314 367.42613067 -106.49927637 366.31262743 C-106.50048812 364.11703994 -106.50170226 361.92145246 -106.50291874 359.72586497 C-106.51379698 339.13179469 -106.51163069 318.53774078 -106.5055339 297.94366958 C-106.50036685 279.11197589 -106.51161409 260.28033397 -106.53063212 241.44865052 C-106.5500151 222.10707381 -106.55826556 202.76552159 -106.55450886 183.42393512 C-106.55259722 172.56730267 -106.55508066 161.71071426 -106.5692234 150.85408974 C-106.58114417 141.60960839 -106.58253441 132.36519817 -106.57043324 123.12071583 C-106.56454891 118.406339 -106.56343273 113.69209221 -106.57543564 108.97772408 C-106.58630929 104.65655478 -106.58317348 100.33562387 -106.56917395 96.01446565 C-106.56653106 94.45659832 -106.56888069 92.89871221 -106.57690982 91.34086332 C-106.66347992 73.28129598 -102.68547118 58.81028712 -90.19090271 45.38768005 C-79.8316612 35.62757378 -66.96612107 29.98980865 -52.75340271 30.19236755 C-51.60508972 30.1966124 -51.60508972 30.1966124 -50.43357849 30.20094299 C-48.01918547 30.21202357 -45.60518117 30.23710405 -43.19090271 30.26268005 C-41.54116853 30.27272558 -39.89142847 30.28184866 -38.24168396 30.2900238 C-34.22461003 30.31192294 -30.20782198 30.3463668 -26.19090271 30.38768005 C-26.20250427 29.6421991 -26.21410583 28.89671814 -26.22605896 28.12864685 C-26.2350824 27.145495 -26.24410583 26.16234314 -26.25340271 25.1493988 C-26.26500427 24.17704285 -26.27660583 23.20468689 -26.28855896 22.2028656 C-26.0277027 14.68303166 -22.71117572 10.35209996 -17.51902771 5.1493988 C-11.97244873 0.95223921 -6.83703984 -0.05606712 0 0 Z M4.80909729 30.38768005 C4.80909729 40.28768005 4.80909729 50.18768005 4.80909729 60.38768005 C60.57909729 60.38768005 116.34909729 60.38768005 173.80909729 60.38768005 C173.80909729 50.48768005 173.80909729 40.58768005 173.80909729 30.38768005 C118.03909729 30.38768005 62.26909729 30.38768005 4.80909729 30.38768005 Z M-69.72996521 69.05955505 C-73.92800852 74.60784622 -75.4376243 80.02360997 -75.45820236 86.98857594 C-75.46690125 88.30821207 -75.47560014 89.6278482 -75.48456264 90.98747331 C-75.48416771 92.44532325 -75.48358471 93.90317315 -75.48283386 95.36102295 C-75.4892704 96.91484049 -75.49657169 98.46865465 -75.50466275 100.02246445 C-75.52434656 104.28993147 -75.53164241 108.5573436 -75.53689504 112.82484949 C-75.54470217 117.42825624 -75.56391694 122.03161731 -75.58166504 126.63499451 C-75.61456771 135.65295951 -75.63672067 144.67092042 -75.65503016 153.68892566 C-75.67010294 161.01900025 -75.68902991 168.34905545 -75.71071625 175.67911339 C-75.71379807 176.72201313 -75.7168799 177.76491287 -75.72005512 178.83941564 C-75.7263319 180.95802388 -75.73261732 183.07663209 -75.7389113 185.19524028 C-75.79749274 205.06908339 -75.84387325 224.94294077 -75.88611594 244.8168244 C-75.92264308 261.86676356 -75.96968031 278.91664734 -76.0243988 295.96653748 C-76.08793111 315.76416919 -76.14487861 335.56180194 -76.19138741 355.35948151 C-76.19636692 357.47125417 -76.20135516 359.58302681 -76.20635223 361.69479942 C-76.20880779 362.73383266 -76.21126335 363.77286589 -76.21379332 364.84338498 C-76.23154615 372.16248345 -76.25400815 379.48155879 -76.27829742 386.8006382 C-76.30778402 395.72350384 -76.33005304 404.64635274 -76.34310165 413.56925813 C-76.34994007 418.12122248 -76.36000036 422.67311817 -76.37885475 427.22504997 C-76.39603157 431.39430303 -76.40381922 435.56346561 -76.40420726 439.73275306 C-76.40597399 441.23878865 -76.41113016 442.74482501 -76.42007181 444.2508351 C-76.58850454 460.96781062 -76.58850454 460.96781062 -68.55027771 475.08299255 C-60.00812495 482.77093004 -50.74574837 482.53736921 -39.77980042 482.52139282 C-38.63677487 482.52365838 -37.49374933 482.52592394 -36.31608665 482.52825814 C-32.48935488 482.53458384 -28.66265866 482.5337697 -24.83592224 482.53294373 C-22.09090542 482.53539309 -19.34589108 482.53931054 -16.60087585 482.54312134 C-9.92053305 482.55141574 -3.24019907 482.55417562 3.44014846 482.55473372 C8.87135131 482.5552094 14.30255127 482.55726674 19.7337532 482.56043434 C35.14131462 482.56923717 50.54886909 482.57385423 65.95643304 482.57310387 C66.78646947 482.57306391 67.6165059 482.57302396 68.47169495 482.57298279 C69.30274778 482.57294191 70.13380061 482.57290103 70.99003686 482.57285891 C84.45976489 482.57245241 97.92946498 482.58202374 111.39918493 482.59612115 C125.23871386 482.61049104 139.07822916 482.61739102 152.91776574 482.61652738 C160.68406424 482.61619565 168.45033344 482.6189323 176.21662521 482.62970543 C182.82833609 482.63881843 189.44000437 482.64097907 196.05171882 482.63419601 C199.42297444 482.63093498 202.79408177 482.6319497 206.16534042 482.63954926 C209.82497577 482.64726422 213.48439698 482.64262742 217.14402771 482.63491821 C218.20250282 482.64006178 219.26097793 482.64520534 220.35152805 482.65050477 C230.20048816 482.60470548 238.36924423 481.75867422 245.66065979 474.55955505 C251.08222288 468.71408374 253.05252834 463.86548551 253.07639694 455.78678417 C253.08509583 454.46714804 253.09379472 453.14751191 253.10275722 451.7878868 C253.10236229 450.33003686 253.10177929 448.87218696 253.10102844 447.41433716 C253.10746498 445.86051962 253.11476627 444.30670546 253.12285733 442.75289565 C253.14254114 438.48542863 253.14983699 434.21801651 253.15508962 429.95051062 C253.16289675 425.34710387 253.18211152 420.7437428 253.19985962 416.1403656 C253.23276229 407.1224006 253.25491525 398.10443969 253.27322474 389.08643445 C253.28829752 381.75635985 253.30722449 374.42630466 253.32891083 367.09624672 C253.33353357 365.53189711 253.33353357 365.53189711 253.3382497 363.93594447 C253.34452648 361.81733623 253.3508119 359.69872802 253.35710588 357.58011983 C253.41568732 337.70627671 253.46206783 317.83241933 253.50431052 297.95853571 C253.54083766 280.90859655 253.58787489 263.85871277 253.64259338 246.80882263 C253.70612569 227.01119092 253.76307319 207.21355817 253.809582 187.41587859 C253.8145615 185.30410594 253.81954974 183.1923333 253.82454681 181.08056068 C253.82823015 179.52201083 253.82823015 179.52201083 253.8319879 177.93197512 C253.84974073 170.61287665 253.87220273 163.29380132 253.896492 155.97472191 C253.9259786 147.05185627 253.94824762 138.12900737 253.96129623 129.20610198 C253.96813465 124.65413763 253.97819494 120.10224194 253.99704933 115.55031013 C254.01422615 111.38105708 254.0220138 107.2118945 254.02240184 103.04260705 C254.02416857 101.53657145 254.02932474 100.03053509 254.03826639 98.52452501 C254.20669912 81.80754948 254.20669912 81.80754948 246.16847229 67.69236755 C237.33918174 59.74600606 227.69510364 60.23781769 216.37159729 60.32518005 C215.25849182 60.32969177 214.14538635 60.33420349 212.99855042 60.33885193 C210.26867628 60.35056813 207.53891555 60.36697306 204.80909729 60.38768005 C204.66214417 61.65611755 204.66214417 61.65611755 204.51222229 62.95018005 C203.20659624 72.85492943 201.52535492 79.59521505 193.78565979 86.16111755 C188.71976735 89.30477413 183.59625864 89.67973328 177.77641296 89.65510559 C176.58887619 89.66190226 176.58887619 89.66190226 175.37734878 89.66883624 C172.73360738 89.68146184 170.09007247 89.67986107 167.44630432 89.6782074 C165.54709102 89.68419375 163.64788016 89.69099955 161.74867249 89.69856262 C156.59574937 89.71621784 151.4428927 89.72091777 146.28994226 89.72219419 C143.06929872 89.7236165 139.84867204 89.72788758 136.62803268 89.73318863 C125.38873473 89.75168657 114.14948419 89.75985944 102.91017151 89.75828552 C92.43892111 89.75708384 81.96787673 89.77819205 71.49667847 89.80977285 C62.50116798 89.83593479 53.50572478 89.84665287 44.51017654 89.8453747 C39.13989572 89.84486509 33.76979808 89.85054801 28.39955521 89.8717308 C23.34828122 89.89111197 18.29736519 89.89123838 13.24607849 89.87669754 C11.3949875 89.87460828 9.54387411 89.87931733 7.6928215 89.89141846 C5.16004548 89.90690057 2.62849925 89.89754396 0.0957489 89.88215637 C-0.99542388 89.89758706 -0.99542388 89.89758706 -2.10864055 89.91332948 C-8.49780766 89.82791617 -13.59388534 87.62274378 -18.43309021 83.45799255 C-23.31911195 77.63684704 -25.06945188 73.28436463 -25.72996521 65.6884613 C-25.86072449 64.20019836 -25.86072449 64.20019836 -25.99412537 62.68186951 C-26.05906189 61.92478699 -26.12399841 61.16770447 -26.19090271 60.38768005 C-30.17000611 60.32899787 -34.14899624 60.29385615 -38.12840271 60.26268005 C-39.24537537 60.24592224 -40.36234802 60.22916443 -41.51316833 60.2118988 C-52.07263341 60.14996646 -62.17070095 60.8479685 -69.72996521 69.05955505 Z " fill="#000000" transform="translate(167.19090270996094,-0.3876800537109375)"/>
<path d="M0 0 C1.72786995 -0.01073296 1.72786995 -0.01073296 3.49064636 -0.02168274 C7.29299749 -0.03857189 11.09417006 -0.01916382 14.89648438 0.00219727 C17.54154559 0.0013686 20.18660675 -0.00109069 22.83166504 -0.00511169 C28.37310314 -0.0096273 33.9142031 0.00620361 39.45556641 0.03417969 C45.85299632 0.06622962 52.24981655 0.06621439 58.64728975 0.04896492 C64.81326214 0.0330752 70.97897618 0.03994729 77.14494324 0.05690193 C79.76360068 0.06208424 82.38227566 0.06160138 85.00093079 0.05535698 C88.66116058 0.04990531 92.32035672 0.07028097 95.98046875 0.09765625 C97.60307869 0.08786743 97.60307869 0.08786743 99.25846863 0.07788086 C105.31461537 0.15487572 108.88465384 0.57697261 113.49023438 4.63110352 C116.60174467 8.49366802 117.64020668 12.71013721 117.49023438 17.63110352 C115.89006717 22.87609603 113.60671431 26.04237742 109.49023438 29.63110352 C107.06551873 30.84346134 105.49631701 30.77287085 102.78585815 30.79846191 C101.29714958 30.81569809 101.29714958 30.81569809 99.77836609 30.83328247 C98.68538712 30.84068451 97.59240814 30.84808655 96.46630859 30.85571289 C94.74413368 30.872798 94.74413368 30.872798 92.98716736 30.89022827 C82.38959031 30.98782365 71.79141339 31.03918134 61.19344902 31.0759201 C53.36329411 31.10346677 45.53404781 31.15417024 37.7042712 31.23639441 C32.19503115 31.29228203 26.68603679 31.32117008 21.17652333 31.33039331 C17.88824911 31.33663773 14.6012816 31.3582156 11.31325912 31.40177917 C7.63828484 31.44795026 3.96572712 31.44998798 0.29052734 31.44165039 C-0.79030624 31.46524628 -1.87113983 31.48884216 -2.98472595 31.51315308 C-9.70911456 31.43942126 -13.2302569 30.14274164 -18.07696342 25.42682648 C-21.46572436 21.17971141 -20.95669675 15.78736445 -20.50976562 10.63110352 C-16.59094263 0.83404602 -9.42775224 -0.10190172 0 0 Z " fill="#000000" transform="translate(266.509765625,369.368896484375)"/>
<path d="M0 0 C1.14215973 -0.0071553 2.28431946 -0.01431061 3.46109009 -0.02168274 C7.23097915 -0.03857091 10.99967934 -0.01916444 14.76953125 0.00219727 C17.39217222 0.00136859 20.01481315 -0.00109074 22.63745117 -0.00511169 C28.131812 -0.00962719 33.62583179 0.00620287 39.12011719 0.03417969 C45.46301715 0.06622959 51.80530219 0.06621436 58.14824581 0.04896492 C64.26189323 0.03307468 70.37528008 0.03994765 76.48892212 0.05690193 C79.08525082 0.06208403 81.68159722 0.06160163 84.27792358 0.05535698 C87.90702359 0.04990497 91.53508125 0.07028202 95.1640625 0.09765625 C96.23645172 0.09113037 97.30884094 0.08460449 98.41372681 0.07788086 C104.46255094 0.15543461 107.97593564 0.60027914 112.58203125 4.63110352 C116.51830057 8.98171697 117.22087044 12.54887358 116.96484375 18.23266602 C116.19618583 23.04854316 113.70727072 25.64811667 110.14523315 28.75984192 C105.56979563 31.69910515 100.46130426 31.21295252 95.19580078 31.19628906 C94.05685364 31.20811722 92.91790649 31.21994537 91.7444458 31.23213196 C87.98438182 31.26499429 84.22504184 31.26797592 80.46484375 31.26782227 C77.84699203 31.27813766 75.22914315 31.28920082 72.61129761 31.30097961 C67.12541107 31.32195674 61.63972452 31.32405766 56.15380859 31.31738281 C49.82659166 31.31014434 43.50048962 31.34354968 37.17351449 31.39644021 C31.07052761 31.44560352 24.96806723 31.45571135 18.86489487 31.45099831 C16.27575913 31.45386886 13.68661037 31.46793281 11.09759903 31.49347496 C7.47317676 31.52547507 3.85148023 31.51288456 0.22705078 31.48925781 C-0.83814789 31.50814056 -1.90334656 31.52702332 -3.00082397 31.54647827 C-9.67507104 31.4431767 -13.16597177 30.09519653 -17.97970772 25.42515278 C-21.3783054 21.18583075 -20.86474364 15.78556198 -20.41796875 10.63110352 C-16.51624678 0.87679859 -9.39336473 -0.10241533 0 0 Z " fill="#000000" transform="translate(266.41796875,269.368896484375)"/>
<path d="M0 0 C1.14215973 -0.0071553 2.28431946 -0.01431061 3.46109009 -0.02168274 C7.23097915 -0.03857091 10.99967934 -0.01916444 14.76953125 0.00219727 C17.39217222 0.00136859 20.01481315 -0.00109074 22.63745117 -0.00511169 C28.131812 -0.00962719 33.62583179 0.00620287 39.12011719 0.03417969 C45.46301715 0.06622959 51.80530219 0.06621436 58.14824581 0.04896492 C64.26189323 0.03307468 70.37528008 0.03994765 76.48892212 0.05690193 C79.08525082 0.06208403 81.68159722 0.06160163 84.27792358 0.05535698 C87.90702359 0.04990497 91.53508125 0.07028202 95.1640625 0.09765625 C96.23645172 0.09113037 97.30884094 0.08460449 98.41372681 0.07788086 C104.46255094 0.15543461 107.97593564 0.60027914 112.58203125 4.63110352 C116.51830057 8.98171697 117.22087044 12.54887358 116.96484375 18.23266602 C116.19618583 23.04854316 113.70727072 25.64811667 110.14523315 28.75984192 C105.56979563 31.69910515 100.46130426 31.21295252 95.19580078 31.19628906 C94.05685364 31.20811722 92.91790649 31.21994537 91.7444458 31.23213196 C87.98438182 31.26499429 84.22504184 31.26797592 80.46484375 31.26782227 C77.84699203 31.27813766 75.22914315 31.28920082 72.61129761 31.30097961 C67.12541107 31.32195674 61.63972452 31.32405766 56.15380859 31.31738281 C49.82659166 31.31014434 43.50048962 31.34354968 37.17351449 31.39644021 C31.07052761 31.44560352 24.96806723 31.45571135 18.86489487 31.45099831 C16.27575913 31.45386886 13.68661037 31.46793281 11.09759903 31.49347496 C7.47317676 31.52547507 3.85148023 31.51288456 0.22705078 31.48925781 C-0.83814789 31.50814056 -1.90334656 31.52702332 -3.00082397 31.54647827 C-9.67507104 31.4431767 -13.16597177 30.09519653 -17.97970772 25.42515278 C-21.3783054 21.18583075 -20.86474364 15.78556198 -20.41796875 10.63110352 C-16.51624678 0.87679859 -9.39336473 -0.10241533 0 0 Z " fill="#000000" transform="translate(266.41796875,169.368896484375)"/>
<path d="M0 0 C3.5677811 2.35149209 5.84221079 4.99692157 7.75 8.8125 C7.98828125 11.203125 7.98828125 11.203125 8.0625 14.0625 C8.11857422 15.46242188 8.11857422 15.46242188 8.17578125 16.890625 C7.33287767 22.67495419 3.05668653 26.75777012 -0.93920898 30.77636719 C-1.86374374 31.71043396 -2.7882785 32.64450073 -3.74082947 33.60687256 C-4.74225471 34.60803642 -5.74401766 35.60886258 -6.74609375 36.609375 C-7.78236886 37.6495422 -8.81842176 38.68993082 -9.85426331 39.73052979 C-12.01867833 41.90237871 -14.18689139 44.07034812 -16.35766602 46.23583984 C-19.13462897 49.00699325 -21.90002326 51.78938309 -24.66247463 54.57499313 C-26.79597303 56.72323716 -28.93637292 58.86449964 -31.07881355 61.00382233 C-32.10139243 62.02691338 -33.12162058 63.05235975 -34.13940239 64.08022308 C-35.5628678 65.51605893 -36.99692483 66.94137079 -38.43139648 68.36621094 C-39.6490696 69.58482819 -39.6490696 69.58482819 -40.89134216 70.82806396 C-45.09920456 74.368312 -49.33674781 75.43686659 -54.74169922 75.22436523 C-62.91729043 73.88192584 -69.59834834 65.90001442 -75.125 60.25 C-75.87007812 59.50814453 -76.61515625 58.76628906 -77.3828125 58.00195312 C-82.50431814 52.82978511 -86.62382661 48.52334845 -87.3125 40.93359375 C-87.16351067 35.8772685 -85.43706347 32.03164627 -81.9375 28.4375 C-76.93606312 25.41337538 -72.93737584 24.32761084 -67.1953125 25.27734375 C-61.32618642 26.89194269 -57.31354261 31.55545536 -53.25 35.8125 C-50.22143998 34.4594748 -48.15855956 32.95598573 -45.84594727 30.58789062 C-45.20170303 29.93381226 -44.5574588 29.27973389 -43.89369202 28.60583496 C-43.20818771 27.90059692 -42.52268341 27.19535889 -41.81640625 26.46875 C-40.3484267 24.98035097 -38.88032395 23.49207344 -37.41210938 22.00390625 C-35.10769947 19.6559798 -32.80580703 17.30565042 -30.5065918 14.95263672 C-28.28297813 12.68073016 -26.05022622 10.41811546 -23.81640625 8.15625 C-23.13292618 7.45101196 -22.44944611 6.74577393 -21.74525452 6.01916504 C-15.30477319 -0.48779047 -9.04698077 -3.30562759 0 0 Z " fill="#000000" transform="translate(215.25,348.1875)"/>
<path d="M0 0 C3.5677811 2.35149209 5.84221079 4.99692157 7.75 8.8125 C7.98828125 11.203125 7.98828125 11.203125 8.0625 14.0625 C8.11857422 15.46242188 8.11857422 15.46242188 8.17578125 16.890625 C7.33287767 22.67495419 3.05668653 26.75777012 -0.93920898 30.77636719 C-1.86374374 31.71043396 -2.7882785 32.64450073 -3.74082947 33.60687256 C-4.74225471 34.60803642 -5.74401766 35.60886258 -6.74609375 36.609375 C-7.78236886 37.6495422 -8.81842176 38.68993082 -9.85426331 39.73052979 C-12.01867833 41.90237871 -14.18689139 44.07034812 -16.35766602 46.23583984 C-19.13462897 49.00699325 -21.90002326 51.78938309 -24.66247463 54.57499313 C-26.79597303 56.72323716 -28.93637292 58.86449964 -31.07881355 61.00382233 C-32.10139243 62.02691338 -33.12162058 63.05235975 -34.13940239 64.08022308 C-35.5628678 65.51605893 -36.99692483 66.94137079 -38.43139648 68.36621094 C-39.6490696 69.58482819 -39.6490696 69.58482819 -40.89134216 70.82806396 C-45.09920456 74.368312 -49.33674781 75.43686659 -54.74169922 75.22436523 C-62.91729043 73.88192584 -69.59834834 65.90001442 -75.125 60.25 C-75.87007812 59.50814453 -76.61515625 58.76628906 -77.3828125 58.00195312 C-82.50431814 52.82978511 -86.62382661 48.52334845 -87.3125 40.93359375 C-87.16351067 35.8772685 -85.43706347 32.03164627 -81.9375 28.4375 C-76.93606312 25.41337538 -72.93737584 24.32761084 -67.1953125 25.27734375 C-61.32618642 26.89194269 -57.31354261 31.55545536 -53.25 35.8125 C-50.22143998 34.4594748 -48.15855956 32.95598573 -45.84594727 30.58789062 C-45.20170303 29.93381226 -44.5574588 29.27973389 -43.89369202 28.60583496 C-43.20818771 27.90059692 -42.52268341 27.19535889 -41.81640625 26.46875 C-40.3484267 24.98035097 -38.88032395 23.49207344 -37.41210938 22.00390625 C-35.10769947 19.6559798 -32.80580703 17.30565042 -30.5065918 14.95263672 C-28.28297813 12.68073016 -26.05022622 10.41811546 -23.81640625 8.15625 C-23.13292618 7.45101196 -22.44944611 6.74577393 -21.74525452 6.01916504 C-15.30477319 -0.48779047 -9.04698077 -3.30562759 0 0 Z " fill="#000000" transform="translate(215.25,248.1875)"/>
<path d="M0 0 C3.62656688 1.81328344 5.52614813 3.33660738 7.875 6.625 C9.36599455 11.09798365 9.90165749 15.34261958 9 20 C6.48270729 24.13029546 3.70549731 27.54662487 0.29492188 30.96386719 C-0.63284058 31.89793396 -1.56060303 32.83200073 -2.51647949 33.79437256 C-3.52114839 34.79546229 -4.52607817 35.79629026 -5.53125 36.796875 C-6.56999427 37.83696826 -7.60844165 38.87735812 -8.64660645 39.91802979 C-10.81536991 42.08973086 -12.98768171 44.25780091 -15.16259766 46.42333984 C-17.94686898 49.19618894 -20.7220262 51.97795951 -23.49460602 54.76249313 C-25.63398347 56.90910174 -27.77810659 59.05091908 -29.9236908 61.19132233 C-30.94899708 62.21529707 -31.97282701 63.24075236 -32.99513245 64.26772308 C-34.42355052 65.70122994 -35.85908708 67.12763291 -37.29492188 68.55371094 C-38.10892456 69.36612244 -38.92292725 70.17853394 -39.76159668 71.01556396 C-43.53967365 74.36498362 -46.35418588 75.30468047 -51.375 75.375 C-52.29023438 75.40335937 -53.20546875 75.43171875 -54.1484375 75.4609375 C-62.04626731 74.184302 -67.7841434 66.61814284 -73.1875 61.25 C-74.08919922 60.38117188 -74.99089844 59.51234375 -75.91992188 58.6171875 C-81.530377 53.05268547 -85.9384912 48.49734915 -86.03125 40.20703125 C-84.82395108 34.76530892 -83.61286418 31.51456319 -79 28 C-74.47683141 25.32030768 -70.13011179 25.35567753 -65 26 C-59.77033618 28.56356069 -55.9892995 32.832166 -52 37 C-47.13446601 32.96340076 -42.61910344 28.7113675 -38.21875 24.17578125 C-36.95226987 22.88693044 -35.68532898 21.59853226 -34.41796875 20.31054688 C-32.45176465 18.30720282 -30.48884038 16.30100368 -28.53369141 14.28686523 C-26.62540576 12.32391391 -24.70449987 10.37405872 -22.78125 8.42578125 C-21.91687317 7.52573112 -21.91687317 7.52573112 -21.03503418 6.60749817 C-14.8350972 0.36830478 -8.75935398 -2.32944568 0 0 Z " fill="#000000" transform="translate(214,140)"/>
</svg>
